<!DOCTYPE svg PUBLIC "-//W3C//DTD SVG 1.1//EN" "http://www.w3.org/Graphics/SVG/1.1/DTD/svg11.dtd">
<!-- Uploaded to: SVG Repo, www.svgrepo.com, Transformed by: SVG Repo Mixer Tools -->
<svg fill="#ffffff" version="1.1" id="Capa_1" xmlns="http://www.w3.org/2000/svg" xmlns:xlink="http://www.w3.org/1999/xlink" width="800px" height="800px" viewBox="0 0 381.972 381.972" xml:space="preserve" stroke="#ffffff">
<g id="SVGRepo_bgCarrier" stroke-width="0"/>
<g id="SVGRepo_tracerCarrier" stroke-linecap="round" stroke-linejoin="round"/>
<g id="SVGRepo_iconCarrier"> <g> <g> <path d="M372.62,280.441L372.62,280.441c5.163,0,9.353-4.189,9.353-9.353c0-5.164-4.189-9.354-9.353-9.354H84.243 c-32.653,0-59.223,26.573-59.223,59.224c0,32.656,26.57,59.223,59.223,59.223H372.62c5.163,0,9.353-4.177,9.353-9.353 c0-5.164-4.189-9.354-9.353-9.354l0,0h-8.324c-19.211-33.581-7.514-65.714,0.506-81.034H372.62z"/> <path d="M372.62,20.496L372.62,20.496c5.163,0,9.353-4.189,9.353-9.353c0-5.17-4.189-9.353-9.353-9.353H84.243 C51.59,1.79,25.02,28.356,25.02,61.013c0,32.653,26.57,59.223,59.223,59.223H372.62c5.163,0,9.353-4.183,9.353-9.353 c0-5.163-4.189-9.353-9.353-9.353l0,0h-8.324c-19.211-33.585-7.514-65.714,0.506-81.035H372.62z"/> <path d="M297.723,249.241c32.662,0,59.223-26.567,59.223-59.224c0-32.65-26.561-59.22-59.223-59.22H9.353 C4.189,130.798,0,134.98,0,140.15c0,5.164,4.189,9.353,9.353,9.353l0,0h7.818c8.016,15.32,19.713,47.45,0.505,81.032H9.353l0,0 c-5.164,0-9.353,4.188-9.353,9.353c0,5.176,4.189,9.354,9.353,9.354H297.723z"/> </g> </g> </g>
</svg>